# Blender 5.0.1
# www.blender.org
mtllib tree.mtl
o stem
v -0.445964 -0.445964 0.445964
v -0.405018 1.958801 -0.124243
v -0.445964 -0.445964 -0.445964
v -0.337857 2.062774 -0.820147
v 0.445964 -0.445964 0.445964
v 0.253597 1.832732 -0.041036
v 0.445964 -0.445964 -0.445964
v 0.337857 2.062774 -0.820147
v -0.778355 4.359595 0.353618
v -0.750897 4.478099 -0.213372
v -0.196137 4.309440 -0.221756
v -0.223595 4.190937 0.345234
v -0.395276 2.804786 -0.111999
v -0.631523 3.544163 0.182021
v -0.613217 3.668721 -0.398582
v -0.515626 3.106214 -0.571267
v 0.212714 2.631516 -0.027012
v -0.036444 3.431724 0.176432
v -0.018139 3.556721 -0.409979
v 0.108031 3.033909 -0.578624
v -0.031809 3.936026 -1.050562
v 0.026691 3.651990 -1.152224
v 0.275480 3.882175 -1.044552
v 0.348303 3.618613 -1.142336
v -0.627575 4.726073 -1.667157
v -0.560980 4.714047 -1.966914
v -0.320352 4.688107 -1.706338
v -0.239873 4.679393 -1.985223
v -1.041352 2.793072 1.213814
v -1.471367 2.928169 1.064356
v -1.335206 3.452122 0.818345
v -0.947173 3.294909 0.978576
v -1.071919 3.484743 1.561005
v -1.297752 3.539479 1.476600
v -1.227295 3.765847 1.277525
v -1.023263 3.702255 1.371310
vn -0.9989 0.0225 -0.0408
vn -0.0000 -0.1475 -0.9891
vn 0.9955 0.0733 0.0603
vn -0.0345 0.2190 0.9751
vn -0.0000 -1.0000 -0.0000
vn -0.9850 -0.1566 -0.0724
vn 0.2873 0.9347 0.2093
vn -0.0418 -0.2196 0.9747
vn 0.0420 0.2403 -0.9698
vn 0.9730 0.2151 0.0840
vn 0.9882 0.1435 0.0530
vn 0.9644 0.2603 0.0474
vn 0.0077 0.2380 -0.9712
vn -0.0745 -0.6836 -0.7260
vn -0.2939 -0.8676 0.4012
vn -0.1431 -0.3449 0.9277
vn -0.9958 -0.0905 0.0141
vn -0.9691 -0.2464 -0.0058
vn 0.1405 0.6808 0.7189
vn 0.1594 0.8510 0.5005
vn 0.8895 0.0722 0.4512
vn -0.7597 0.0695 -0.6466
vn 0.1142 0.9934 -0.0066
vn 0.8541 0.5193 -0.0278
vn -0.0778 -0.6400 -0.7645
vn -0.8689 -0.4870 0.0884
vn 0.4907 0.6560 -0.5735
vn -0.7393 -0.0360 -0.6725
vn 0.3566 0.9063 -0.2269
vn 0.7063 0.0905 0.7021
vn -0.1181 0.6720 0.7311
vn -0.9611 0.2754 0.0181
vn 0.9720 -0.0587 0.2273
vn -0.4107 -0.4251 0.8066
vt 0.375000 0.000000
vt 0.625000 0.000000
vt 0.625000 0.250000
vt 0.375000 0.250000
vt 0.625000 0.500000
vt 0.375000 0.500000
vt 0.625000 0.750000
vt 0.375000 0.750000
vt 0.625000 1.000000
vt 0.375000 1.000000
vt 0.125000 0.500000
vt 0.125000 0.750000
vt 0.625000 0.250000
vt 0.875000 0.500000
vt 0.875000 0.750000
vt 0.625000 0.250000
s 0
usemtl bark
f 1/1/1 2/2/1 4/3/1 3/4/1
f 3/4/2 4/3/2 8/5/2 7/6/2
f 7/6/3 8/5/3 6/7/3 5/8/3
f 5/8/4 6/7/4 2/9/4 1/10/4
f 3/11/5 7/6/5 5/8/5 1/12/5
f 15/13/6 14/2/6 9/2/6 10/3/6
f 11/5/7 10/14/7 9/15/7 12/7/7
f 14/9/8 18/7/8 12/7/8 9/9/8
f 19/5/9 15/13/9 10/3/9 11/5/9
f 18/7/10 19/5/10 11/5/10 12/7/10
f 6/7/11 8/5/11 20/5/11 17/7/11
f 17/7/12 20/5/12 19/5/12 18/7/12
f 8/5/13 4/3/13 16/16/13 20/5/13
f 20/5/14 16/16/14 22/16/14 24/5/14
f 2/9/15 6/7/15 29/7/15 30/9/15
f 13/9/16 17/7/16 18/7/16 14/9/16
f 4/3/17 2/2/17 13/2/17 16/16/17
f 16/16/18 13/2/18 14/2/18 15/13/18
f 21/13/19 23/5/19 27/5/19 25/13/19
f 15/13/20 19/5/20 23/5/20 21/13/20
f 19/5/21 20/5/21 24/5/21 23/5/21
f 16/16/22 15/13/22 21/13/22 22/16/22
f 28/5/23 26/16/23 25/13/23 27/5/23
f 23/5/24 24/5/24 28/5/24 27/5/24
f 24/5/25 22/16/25 26/16/25 28/5/25
f 22/16/26 21/13/26 25/13/26 26/16/26
f 32/7/27 31/9/27 35/9/27 36/7/27
f 13/2/28 2/2/28 30/2/28 31/2/28
f 17/7/29 13/9/29 31/9/29 32/7/29
f 6/7/30 17/7/30 32/7/30 29/7/30
f 34/9/31 33/7/31 36/7/31 35/9/31
f 31/2/32 30/2/32 34/2/32 35/2/32
f 29/7/33 32/7/33 36/7/33 33/7/33
f 30/9/34 29/7/34 33/7/34 34/9/34
o biggerleaf
v -0.131655 6.702366 -0.530977
v 0.212584 6.515384 -1.611936
v 0.464584 6.004539 -2.403252
v 0.556823 5.306712 -2.692894
v 0.464584 4.608885 -2.403252
v 0.212584 4.098040 -1.611936
v -0.131655 3.911058 -0.530977
v 0.810822 6.515384 -0.826130
v 1.500763 6.004539 -1.042198
v 1.753299 5.306712 -1.121284
v 1.500763 4.608885 -1.042198
v 0.810822 4.098040 -0.826130
v 0.466583 6.515384 0.254828
v 0.904524 6.004539 0.830077
v 1.064821 5.306712 1.040633
v 0.904524 4.608885 0.830077
v 0.466583 4.098040 0.254828
v -0.475894 6.515384 0.549981
v -0.727895 6.004539 1.341297
v -0.820134 5.306712 1.630939
v -0.727895 4.608885 1.341297
v -0.475894 4.098040 0.549981
v -1.074133 6.515384 -0.235824
v -1.764074 6.004539 -0.019757
v -2.016610 5.306712 0.059329
v -1.764074 4.608885 -0.019757
v -1.074133 4.098040 -0.235824
v -0.729893 6.515384 -1.316783
v -1.167834 6.004539 -1.892032
v -1.328131 5.306712 -2.102588
v -1.167834 4.608885 -1.892032
v -0.729893 4.098040 -1.316783
vn 0.7494 0.3359 -0.5706
vn 0.1570 0.9803 -0.1196
vn 0.1570 -0.9803 -0.1196
vn 0.7494 -0.3359 -0.5706
vn 0.4780 0.7995 -0.3639
vn 0.4780 -0.7995 -0.3639
vn 0.2147 -0.9743 0.0684
vn 0.9100 -0.2965 0.2898
vn 0.6226 0.7570 0.1983
vn 0.6226 -0.7570 0.1983
vn 0.9100 0.2965 0.2898
vn 0.2147 0.9743 0.0684
vn 0.0590 -0.9803 0.1884
vn 0.2815 -0.3359 0.8989
vn 0.1795 0.7995 0.5733
vn 0.1795 -0.7995 0.5733
vn 0.2815 0.3359 0.8989
vn 0.0590 0.9803 0.1884
vn -0.7494 -0.3359 0.5706
vn -0.4780 0.7995 0.3639
vn -0.4780 -0.7995 0.3639
vn -0.7494 0.3359 0.5706
vn -0.1570 0.9803 0.1196
vn -0.1570 -0.9803 0.1196
vn -0.6226 0.7570 -0.1983
vn -0.6226 -0.7570 -0.1983
vn -0.9100 0.2965 -0.2898
vn -0.2147 0.9743 -0.0684
vn -0.2147 -0.9743 -0.0684
vn -0.9100 -0.2965 -0.2898
vn -0.1795 -0.7995 -0.5733
vn -0.2815 0.3359 -0.8989
vn -0.0590 0.9803 -0.1884
vn -0.0590 -0.9803 -0.1884
vn -0.2815 -0.3359 -0.8989
vn -0.1795 0.7995 -0.5733
vt 0.666667 0.500000
vt 0.666667 0.666667
vt 0.500000 0.666667
vt 0.500000 0.500000
vt 0.666667 0.833333
vt 0.583333 1.000000
vt 0.500000 0.833333
vt 0.583333 0.000000
vt 0.666667 0.166667
vt 0.500000 0.166667
vt 0.666667 0.333333
vt 0.500000 0.333333
vt 0.416667 0.000000
vt 0.333333 0.166667
vt 0.333333 0.500000
vt 0.333333 0.333333
vt 0.333333 0.833333
vt 0.333333 0.666667
vt 0.416667 1.000000
vt 0.250000 0.000000
vt 0.166667 0.166667
vt 0.166667 0.500000
vt 0.166667 0.333333
vt 0.166667 0.833333
vt 0.166667 0.666667
vt 0.250000 1.000000
vt 0.000000 0.500000
vt 0.000000 0.333333
vt 0.000000 0.833333
vt 0.000000 0.666667
vt 0.000000 0.166667
vt 0.083333 1.000000
vt 0.083333 0.000000
vt 1.000000 0.666667
vt 1.000000 0.833333
vt 0.833333 0.833333
vt 0.833333 0.666667
vt 1.000000 0.166667
vt 1.000000 0.333333
vt 0.833333 0.333333
vt 0.833333 0.166667
vt 1.000000 0.500000
vt 0.833333 0.500000
vt 0.916667 1.000000
vt 0.916667 0.000000
vt 0.750000 1.000000
vt 0.750000 0.000000
s 0
usemtl leaves
f 40/17/35 39/18/35 45/19/35 46/20/35
f 38/21/36 37/22/36 44/23/36
f 43/24/37 42/25/37 48/26/37
f 41/27/38 40/17/38 46/20/38 47/28/38
f 39/18/39 38/21/39 44/23/39 45/19/39
f 42/25/40 41/27/40 47/28/40 48/26/40
f 43/29/41 48/26/41 53/30/41
f 47/28/42 46/20/42 51/31/42 52/32/42
f 45/19/43 44/23/43 49/33/43 50/34/43
f 48/26/44 47/28/44 52/32/44 53/30/44
f 46/20/45 45/19/45 50/34/45 51/31/45
f 44/23/46 37/35/46 49/33/46
f 43/36/47 53/30/47 58/37/47
f 52/32/48 51/31/48 56/38/48 57/39/48
f 50/34/49 49/33/49 54/40/49 55/41/49
f 53/30/50 52/32/50 57/39/50 58/37/50
f 51/31/51 50/34/51 55/41/51 56/38/51
f 49/33/52 37/42/52 54/40/52
f 57/39/53 56/38/53 61/43/53 62/44/53
f 55/41/54 54/40/54 59/45/54 60/46/54
f 58/37/55 57/39/55 62/44/55 63/47/55
f 56/38/56 55/41/56 60/46/56 61/43/56
f 54/40/57 37/48/57 59/45/57
f 43/49/58 58/37/58 63/47/58
f 60/50/59 59/51/59 64/52/59 65/53/59
f 63/54/60 62/55/60 67/56/60 68/57/60
f 61/58/61 60/50/61 65/53/61 66/59/61
f 59/51/62 37/60/62 64/52/62
f 43/61/63 63/54/63 68/57/63
f 62/55/64 61/58/64 66/59/64 67/56/64
f 68/57/65 67/56/65 41/27/65 42/25/65
f 66/59/66 65/53/66 39/18/66 40/17/66
f 64/52/67 37/62/67 38/21/67
f 43/63/68 68/57/68 42/25/68
f 67/56/69 66/59/69 40/17/69 41/27/69
f 65/53/70 64/52/70 38/21/70 39/18/70
o smallleaf
v -1.199278 4.241282 1.251264
v -1.199278 4.314063 0.674905
v -1.199278 4.144248 0.176566
v -1.199278 3.777339 -0.110222
v -1.199278 3.311649 -0.108616
v -1.199278 2.871959 0.180955
v -1.199278 2.576084 0.680900
v -0.689460 4.221899 0.943981
v -0.316248 3.984615 0.642620
v -0.179643 3.593011 0.427930
v -0.316248 3.152016 0.357438
v -0.689460 2.779795 0.450031
v -0.689460 4.037570 1.482133
v -0.316248 3.665349 1.574727
v -0.179643 3.224355 1.504235
v -0.316248 2.832750 1.289545
v -0.689460 2.595467 0.988183
v -1.199278 3.945406 1.751209
v -1.199278 3.505716 2.040781
v -1.199278 3.040026 2.042387
v -1.199278 2.673117 1.755598
v -1.199278 2.503303 1.257260
v -1.709095 4.037570 1.482133
v -2.082308 3.665349 1.574727
v -2.218913 3.224355 1.504234
v -2.082308 2.832750 1.289545
v -1.709095 2.595467 0.988183
v -1.709095 4.221899 0.943981
v -2.082308 3.984615 0.642619
v -2.218913 3.593011 0.427930
v -2.082308 3.152016 0.357437
v -1.709095 2.779795 0.450031
vn 0.4663 0.5448 -0.6970
vn 0.1125 0.9858 0.1245
vn 0.1125 -0.8551 -0.5061
vn 0.4663 -0.0031 -0.8846
vn 0.3231 0.8958 -0.3053
vn 0.3231 -0.5205 -0.7904
vn 0.2253 -0.9217 -0.3157
vn 0.9550 -0.2805 -0.0961
vn 0.6534 0.7162 0.2453
vn 0.6534 -0.7162 -0.2453
vn 0.9550 0.2805 0.0961
vn 0.2253 0.9217 0.3157
vn 0.1125 -0.9858 -0.1245
vn 0.4663 -0.5448 0.6970
vn 0.3231 0.5205 0.7904
vn 0.3231 -0.8958 0.3053
vn 0.4663 0.0031 0.8846
vn 0.1125 0.8551 0.5061
vn -0.4663 -0.5448 0.6970
vn -0.3231 0.5205 0.7904
vn -0.3231 -0.8958 0.3053
vn -0.4663 0.0031 0.8846
vn -0.1125 0.8551 0.5061
vn -0.1125 -0.9858 -0.1245
vn -0.6534 0.7162 0.2453
vn -0.6534 -0.7162 -0.2453
vn -0.9550 0.2805 0.0961
vn -0.2253 0.9217 0.3157
vn -0.2253 -0.9217 -0.3157
vn -0.9550 -0.2805 -0.0961
vn -0.3231 -0.5205 -0.7904
vn -0.4663 0.5448 -0.6970
vn -0.1125 0.9858 0.1245
vn -0.1125 -0.8551 -0.5061
vn -0.4663 -0.0031 -0.8846
vn -0.3231 0.8958 -0.3053
vt 0.666667 0.500000
vt 0.666667 0.666667
vt 0.500000 0.666667
vt 0.500000 0.500000
vt 0.666667 0.833333
vt 0.583333 1.000000
vt 0.500000 0.833333
vt 0.583333 0.000000
vt 0.666667 0.166667
vt 0.500000 0.166667
vt 0.666667 0.333333
vt 0.500000 0.333333
vt 0.416667 0.000000
vt 0.333333 0.166667
vt 0.333333 0.500000
vt 0.333333 0.333333
vt 0.333333 0.833333
vt 0.333333 0.666667
vt 0.416667 1.000000
vt 0.250000 0.000000
vt 0.166667 0.166667
vt 0.166667 0.500000
vt 0.166667 0.333333
vt 0.166667 0.833333
vt 0.166667 0.666667
vt 0.250000 1.000000
vt 0.000000 0.500000
vt 0.000000 0.333333
vt 0.000000 0.833333
vt 0.000000 0.666667
vt 0.000000 0.166667
vt 0.083333 1.000000
vt 0.083333 0.000000
vt 1.000000 0.666667
vt 1.000000 0.833333
vt 0.833333 0.833333
vt 0.833333 0.666667
vt 1.000000 0.166667
vt 1.000000 0.333333
vt 0.833333 0.333333
vt 0.833333 0.166667
vt 1.000000 0.500000
vt 0.833333 0.500000
vt 0.916667 1.000000
vt 0.916667 0.000000
vt 0.750000 1.000000
vt 0.750000 0.000000
s 0
usemtl leaves
f 72/64/71 71/65/71 77/66/71 78/67/71
f 70/68/72 69/69/72 76/70/72
f 75/71/73 74/72/73 80/73/73
f 73/74/74 72/64/74 78/67/74 79/75/74
f 71/65/75 70/68/75 76/70/75 77/66/75
f 74/72/76 73/74/76 79/75/76 80/73/76
f 75/76/77 80/73/77 85/77/77
f 79/75/78 78/67/78 83/78/78 84/79/78
f 77/66/79 76/70/79 81/80/79 82/81/79
f 80/73/80 79/75/80 84/79/80 85/77/80
f 78/67/81 77/66/81 82/81/81 83/78/81
f 76/70/82 69/82/82 81/80/82
f 75/83/83 85/77/83 90/84/83
f 84/79/84 83/78/84 88/85/84 89/86/84
f 82/81/85 81/80/85 86/87/85 87/88/85
f 85/77/86 84/79/86 89/86/86 90/84/86
f 83/78/87 82/81/87 87/88/87 88/85/87
f 81/80/88 69/89/88 86/87/88
f 89/86/89 88/85/89 93/90/89 94/91/89
f 87/88/90 86/87/90 91/92/90 92/93/90
f 90/84/91 89/86/91 94/91/91 95/94/91
f 88/85/92 87/88/92 92/93/92 93/90/92
f 86/87/93 69/95/93 91/92/93
f 75/96/94 90/84/94 95/94/94
f 92/97/95 91/98/95 96/99/95 97/100/95
f 95/101/96 94/102/96 99/103/96 100/104/96
f 93/105/97 92/97/97 97/100/97 98/106/97
f 91/98/98 69/107/98 96/99/98
f 75/108/99 95/101/99 100/104/99
f 94/102/100 93/105/100 98/106/100 99/103/100
f 100/104/101 99/103/101 73/74/101 74/72/101
f 98/106/102 97/100/102 71/65/102 72/64/102
f 96/99/103 69/109/103 70/68/103
f 75/110/104 100/104/104 74/72/104
f 99/103/105 98/106/105 72/64/105 73/74/105
f 97/100/106 96/99/106 70/68/106 71/65/106
